<svg width="17" height="17" viewBox="0 0 17 17" fill="none" xmlns="http://www.w3.org/2000/svg">
<path d="M17 8.5C17 13.1944 13.1944 17 8.5 17C3.80558 17 0 13.1944 0 8.5C0 3.80558 3.80558 0 8.5 0C13.1944 0 17 3.80558 17 8.5Z" fill="#1877F2"/>
<path d="M8.92336 13V8.90135H10.2561L10.4542 7.2966H8.92336V6.27444C8.92336 5.81137 9.04772 5.49432 9.6883 5.49432H10.5V4.06359C10.1051 4.01968 9.70809 3.99848 9.31089 4.00008C8.13287 4.00008 7.32407 4.7462 7.32407 6.11592V7.2936H6V8.89835H7.32696V13H8.92336Z" fill="white"/>
</svg>
