<svg width="155" height="34" viewBox="0 0 155 34" fill="none" xmlns="http://www.w3.org/2000/svg">
<path fill-rule="evenodd" clip-rule="evenodd" d="M25.766 0.73099C22.9065 0.193425 19.9989 -0.0515976 17.0889 -0.000199291C14.1788 -0.0516436 11.2709 0.193379 8.41119 0.73099C6.52381 1.12991 4.79379 2.06382 3.43118 3.41933C2.06857 4.77485 1.13199 6.49365 0.735174 8.36703C-0.244732 14.0812 -0.244732 19.9184 0.735174 25.6326C1.13199 27.506 2.06857 29.2248 3.43118 30.5803C4.79379 31.9358 6.52381 32.8697 8.41119 33.2686C11.27 33.8062 14.1769 34.0512 17.0862 33.9998C19.9962 34.0513 22.9038 33.8063 25.7633 33.2686C27.6507 32.8697 29.3807 31.9358 30.7433 30.5803C32.1059 29.2248 33.0425 27.506 33.4393 25.6326C34.4195 19.9185 34.4195 14.0811 33.4393 8.36703C33.0427 6.494 32.1065 4.77545 30.7444 3.41997C29.3823 2.06448 27.6529 1.13037 25.766 0.73099Z" fill="#1070CA"/>
<path d="M17.2202 26.9239C16.2865 26.7945 15.3637 26.5965 14.4594 26.3317C10.996 25.0419 9.00003 22.5087 8.76517 18.8676C8.57362 15.8952 8.72659 12.9007 8.72659 9.85644H17.2202V26.9239Z" fill="white"/>
<path d="M27.1779 14.0246C27.1778 14.8594 26.9288 15.6755 26.4621 16.3702C25.9954 17.0649 25.332 17.607 24.5553 17.9284C23.7786 18.2497 22.9234 18.3359 22.0975 18.1761C21.2715 18.0163 20.5117 17.6176 19.9137 17.0303C19.3157 16.4429 18.9062 15.6932 18.7369 14.8755C18.5676 14.0577 18.646 13.2086 18.9622 12.435C19.2784 11.6614 19.8183 10.9979 20.5139 10.528C21.2095 10.0582 22.0297 9.80303 22.8712 9.79468C23.4349 9.78837 23.9943 9.89316 24.5169 10.103C25.0395 10.3128 25.5149 10.6234 25.9155 11.0169C26.3162 11.4104 26.634 11.8789 26.8507 12.3952C27.0674 12.9115 27.1786 13.4653 27.1779 14.0246Z" fill="white"/>
<path d="M43.0308 12.722H45.7564V14.2166H45.9331C46.0709 13.9485 46.2504 13.7035 46.4651 13.4908C46.6893 13.2705 46.9392 13.0776 47.2096 12.9161C47.4889 12.7506 47.7867 12.6182 48.0969 12.5213C48.4011 12.4223 48.719 12.3714 49.0391 12.3702C49.3718 12.364 49.7036 12.4052 50.0246 12.4924C50.2723 12.5626 50.5078 12.6696 50.7231 12.81L49.9467 15.3815C49.7594 15.2908 49.5626 15.2208 49.3599 15.1727C49.1014 15.1171 48.8372 15.0912 48.5727 15.0955C48.1987 15.0913 47.8285 15.1709 47.4898 15.3285C47.167 15.4813 46.8829 15.7041 46.6586 15.9804C46.4225 16.2733 46.2422 16.6064 46.1266 16.9634C45.9979 17.3596 45.9341 17.7738 45.9378 18.1901V23.4943H43.0355L43.0308 12.722Z" fill="#314855"/>
<path d="M61.6682 20.8999C61.1781 21.7651 60.4807 22.4973 59.6377 23.0317C58.7018 23.5976 57.6198 23.8804 56.5242 23.8455C55.7385 23.8537 54.959 23.7077 54.2304 23.4157C53.546 23.143 52.9242 22.7356 52.4027 22.2182C51.8811 21.7008 51.4704 21.0841 51.1955 20.4051C50.9014 19.6746 50.7547 18.894 50.7637 18.1075C50.7597 17.3512 50.9026 16.6012 51.1847 15.8985C51.7248 14.5295 52.788 13.4274 54.1431 12.8322C54.8579 12.5186 55.6324 12.3613 56.4139 12.3709C57.2107 12.3566 58.0023 12.5023 58.7409 12.7993C59.3913 13.0647 59.9741 13.4701 60.4472 13.9863C60.9137 14.5069 61.2681 15.1165 61.4888 15.7777C61.7304 16.501 61.85 17.2589 61.8428 18.0209V18.2841C61.8291 18.3639 61.8218 18.4448 61.8212 18.5258C61.8061 18.6055 61.7989 18.6864 61.7995 18.7675H53.624C53.6684 19.1654 53.7924 19.5505 53.9888 19.9002C54.1645 20.2053 54.398 20.4739 54.6765 20.6911C54.9423 20.9015 55.2469 21.0587 55.5733 21.1537C55.8972 21.2487 56.2332 21.2967 56.5709 21.2961C57.1547 21.3189 57.7312 21.1614 58.2211 20.8455C58.6493 20.5532 59.0024 20.1653 59.2519 19.7129L61.6682 20.8999ZM59.0285 16.723C59.0041 16.5012 58.9401 16.2855 58.8397 16.0859C58.719 15.8383 58.5536 15.6149 58.3517 15.4265C58.1202 15.21 57.8497 15.0385 57.5544 14.9209C57.1907 14.7808 56.8026 14.7135 56.4126 14.7229C55.8222 14.7133 55.2455 14.899 54.7733 15.2506C54.2875 15.6205 53.9371 16.1378 53.7756 16.7237L59.0285 16.723Z" fill="#314855"/>
<path d="M74.12 20.7455C73.6578 21.6421 72.9761 22.4092 72.1375 22.9767C71.1922 23.5833 70.0816 23.8869 68.9564 23.8461C68.1633 23.8559 67.3762 23.7099 66.6403 23.4164C65.9586 23.1444 65.3403 22.7368 64.8236 22.2186C64.3088 21.6979 63.902 21.082 63.6263 20.4058C63.3322 19.6753 63.1855 18.8947 63.1945 18.1082C63.1862 17.3182 63.3329 16.5343 63.6263 15.7999C63.8955 15.122 64.3019 14.5061 64.8204 13.9901C65.3389 13.4742 65.9585 13.0691 66.6409 12.7999C67.3771 12.5075 68.1642 12.362 68.9571 12.3716C70.076 12.3336 71.1803 12.6325 72.1247 13.229C72.9568 13.7717 73.6114 14.5433 74.0083 15.4494L71.349 16.5478C71.1338 16.0927 70.8013 15.702 70.3852 15.4151C69.9431 15.1456 69.4303 15.0119 68.9117 15.0311C68.5393 15.0293 68.1706 15.1041 67.8288 15.2506C67.4915 15.3952 67.1862 15.6044 66.9306 15.8663C66.6633 16.1441 66.456 16.4731 66.3215 16.8332C66.0257 17.6583 66.0257 18.5594 66.3215 19.3846C66.4557 19.7448 66.663 20.0739 66.9306 20.3514C67.1862 20.6133 67.4914 20.8225 67.8288 20.9671C68.1704 21.1142 68.5393 21.189 68.9117 21.1866C69.4544 21.2039 69.9901 21.0624 70.4522 20.7798C70.8916 20.4882 71.2405 20.0811 71.46 19.6041L74.12 20.7455Z" fill="#314855"/>
<path d="M75.7823 12.722H78.5086V14.2166H78.6853C78.8226 13.9482 79.0022 13.7032 79.2173 13.4908C79.441 13.27 79.691 13.077 79.9618 12.9161C80.2406 12.7507 80.5379 12.6182 80.8478 12.5213C81.1522 12.4224 81.4703 12.3714 81.7906 12.3702C82.1233 12.364 82.4552 12.4052 82.7761 12.4924C83.0235 12.5623 83.2586 12.6694 83.4732 12.81L82.6982 15.3815C82.5108 15.291 82.3141 15.221 82.1114 15.1727C81.8529 15.1171 81.5888 15.0912 81.3243 15.0955C80.9502 15.0911 80.5799 15.1708 80.2413 15.3285C79.9185 15.4813 79.6344 15.7041 79.4102 15.9804C79.1741 16.2733 78.9938 16.6064 78.8782 16.9634C78.7494 17.3596 78.6856 17.7738 78.6893 18.1901V23.4943H75.787L75.7823 12.722Z" fill="#314855"/>
<path d="M92.3127 22.087H92.1361C91.7982 22.6265 91.3248 23.0696 90.7621 23.3728C90.1558 23.6942 89.4765 23.856 88.7891 23.8428C88.2144 23.8862 87.6374 23.7955 87.1044 23.5779C86.5714 23.3604 86.0971 23.022 85.7197 22.5899C85.0063 21.6241 84.6504 20.444 84.7118 19.2483V12.7194H87.6141V18.8964C87.5643 19.5158 87.7502 20.1312 88.1353 20.6213C88.3335 20.8163 88.5714 20.9672 88.8331 21.0637C89.0948 21.1603 89.3742 21.2004 89.6528 21.1813C90.0197 21.1888 90.3823 21.1018 90.7052 20.9288C91.0097 20.7584 91.2743 20.5259 91.4816 20.2467C91.7044 19.9432 91.8693 19.6019 91.9682 19.2395C92.0812 18.8351 92.1373 18.4171 92.1347 17.9974V12.7221H95.037V23.493H92.3107L92.3127 22.087Z" fill="#314855"/>
<path d="M99.1393 11.2725C98.892 11.2728 98.6471 11.224 98.4192 11.1288C98.1955 11.0373 97.9923 10.9026 97.8215 10.7327C97.652 10.5658 97.5165 10.3682 97.4222 10.1505C97.2308 9.68551 97.2308 9.1646 97.4222 8.69958C97.5165 8.48198 97.6521 8.28436 97.8215 8.11746C98.1741 7.77169 98.6499 7.57777 99.1458 7.57777C99.6416 7.57777 100.117 7.77169 100.47 8.11746C100.645 8.28787 100.785 8.49128 100.88 8.71575C100.975 8.94022 101.024 9.18125 101.024 9.42473C101.024 9.66821 100.975 9.90924 100.88 10.1337C100.785 10.3582 100.645 10.5616 100.47 10.732C100.296 10.9065 100.089 11.0443 99.8604 11.1372C99.6317 11.2301 99.3864 11.2761 99.1393 11.2725ZM97.6997 23.4923V12.7221H100.602V23.493L97.6997 23.4923Z" fill="#314855"/>
<path d="M104.341 15.1848H102.436V12.7221H104.341V9.42272H107.244V12.7194H109.903V15.1822H107.244V19.4846C107.242 19.7249 107.268 19.9647 107.322 20.199C107.368 20.4077 107.472 20.5997 107.621 20.7542C107.731 20.8771 107.868 20.9735 108.022 21.0361C108.175 21.0988 108.341 21.1262 108.507 21.1161C108.709 21.1232 108.912 21.0971 109.106 21.0389C109.254 20.987 109.396 20.9168 109.527 20.8301L110.347 23.358C109.997 23.5217 109.628 23.6432 109.249 23.7199C108.823 23.8045 108.388 23.8454 107.953 23.8421C107.45 23.8494 106.95 23.7616 106.48 23.5836C106.068 23.4271 105.695 23.1865 105.383 22.8773C105.021 22.4948 104.741 22.0426 104.562 21.5487C104.383 21.0547 104.308 20.5295 104.341 20.0056V15.1848Z" fill="#314855"/>
<path d="M127.213 20.7455C126.75 21.6421 126.068 22.4093 125.229 22.9766C124.284 23.5834 123.173 23.887 122.048 23.8461C121.256 23.8558 120.469 23.7097 119.733 23.4164C119.052 23.1447 118.433 22.7371 117.917 22.2186C117.402 21.6978 116.996 21.0818 116.721 20.4058C116.426 19.6756 116.279 18.8948 116.288 18.1082C116.279 17.3181 116.426 16.534 116.721 15.7999C116.99 15.1219 117.396 14.5059 117.914 13.9899C118.432 13.4739 119.052 13.0689 119.734 12.7999C120.47 12.5077 121.256 12.3621 122.049 12.3716C123.168 12.3332 124.273 12.6322 125.218 13.229C126.05 13.7717 126.705 14.5432 127.103 15.4494L124.443 16.5478C124.228 16.0922 123.896 15.7013 123.479 15.4151C123.037 15.1454 122.524 15.0117 122.006 15.0311C121.633 15.0294 121.265 15.1042 120.923 15.2506C120.586 15.395 120.281 15.6043 120.026 15.8663C119.759 16.1441 119.551 16.4731 119.417 16.8332C119.121 17.6583 119.121 18.5594 119.417 19.3846C119.551 19.7448 119.758 20.0738 120.026 20.3514C120.281 20.6135 120.586 20.8227 120.923 20.9671C121.264 21.1141 121.633 21.1889 122.006 21.1866C122.548 21.2039 123.084 21.0624 123.546 20.7798C123.985 20.4882 124.334 20.0812 124.554 19.6041L127.213 20.7455Z" fill="#314855"/>
<path d="M128.874 12.7221H131.6V14.2167H131.778C131.914 13.9477 132.094 13.7026 132.31 13.4909C132.534 13.2702 132.784 13.0772 133.054 12.9161C133.334 12.7507 133.631 12.6182 133.942 12.5213C134.245 12.4225 134.563 12.3715 134.882 12.3702C135.216 12.364 135.548 12.4051 135.869 12.4925C136.117 12.5626 136.352 12.6697 136.566 12.81L135.791 15.3816C135.604 15.2911 135.407 15.221 135.205 15.1727C134.946 15.1171 134.682 15.0912 134.417 15.0955C134.043 15.0911 133.673 15.1708 133.335 15.3285C133.012 15.4813 132.728 15.7041 132.503 15.9805C132.268 16.2736 132.087 16.6066 131.971 16.9634C131.843 17.3597 131.78 17.7739 131.784 18.1901V23.4943H128.88L128.874 12.7221Z" fill="#314855"/>
<path d="M137.893 12.7221H140.619V14.1287H140.797C141.143 13.5948 141.619 13.1561 142.181 12.853C142.775 12.5289 143.443 12.3626 144.12 12.3702C144.856 12.3449 145.583 12.5441 146.202 12.941C146.732 13.2845 147.148 13.7748 147.399 14.3509C147.765 13.7822 148.258 13.3044 148.839 12.9544C149.521 12.5502 150.305 12.3482 151.099 12.3723C151.691 12.3585 152.28 12.4671 152.828 12.6912C153.296 12.8893 153.709 13.1941 154.036 13.5808C154.366 13.9864 154.611 14.4535 154.756 14.9545C154.922 15.5215 155.004 16.1097 154.999 16.7002V23.4923H152.097V17.228C152.097 15.7625 151.492 15.0297 150.281 15.0297C149.924 15.023 149.572 15.1101 149.261 15.2822C148.964 15.4511 148.709 15.6843 148.516 15.9643C148.304 16.2765 148.147 16.6217 148.051 16.9856C147.937 17.4013 147.881 17.8305 147.885 18.2613V23.4923H144.985V17.228C144.985 15.7625 144.35 15.0297 143.079 15.0297C142.737 15.0229 142.399 15.1103 142.104 15.2822C141.819 15.4553 141.577 15.6892 141.394 15.967C141.19 16.2804 141.041 16.6257 140.952 16.9883C140.846 17.4053 140.794 17.834 140.797 18.264V23.495H137.894L137.893 12.7221Z" fill="#314855"/>
</svg>
